# xmcd CD database file
#
# Track frame offsets:
#	150
#	16795
#	38715
#	53305
#	89440
#	112637
#	134170
#	141522
#	181285
#	197802
#
# Disc length: 2895 seconds
#
# Revision: 0
# Processed by: cddbd v1.5PL3 Copyright (c) Steve Scherf et al.
# Submitted via: CDex 1.51
#
DISCID=800b4d0a
DTITLE=Rainbow - On Stage '84 Disc2
DYEAR=1900
DGENRE=Hard Rock
TTITLE0=Guitar Improvisation
TTITLE1=Drum Solo
TTITLE2=Blues
TTITLE3=Stranded-Hey Joe
TTITLE4=Death Alley Driver
TTITLE5=Fire Dance
TTITLE6=Maybe Next Time
TTITLE7=All Night Long-Woman From Tokyo
TTITLE8=Lazy-Since You've Been Gone
TTITLE9=Smoke On The Water
EXTD=
EXTT0=
EXTT1=
EXTT2=
EXTT3=
EXTT4=
EXTT5=
EXTT6=
EXTT7=
EXTT8=
EXTT9=
PLAYORDER=
